<svg version="1.1" id="Layer_1" xmlns="http://www.w3.org/2000/svg" xmlns:xlink="http://www.w3.org/1999/xlink" x="0px" y="0px"
	 width="100%" viewBox="0 0 500 500" enable-background="new 0 0 500 500" xml:space="preserve">
<path fill="#000000" opacity="1.000000" stroke="none" 
	d="
M234.000000,501.000000 
	C156.000015,501.000000 78.500038,501.000000 1.000041,501.000000 
	C1.000028,334.333405 1.000028,167.666779 1.000014,1.000131 
	C167.666565,1.000087 334.333130,1.000087 500.999756,1.000044 
	C500.999847,167.666519 500.999847,334.333038 500.999939,500.999786 
	C412.166656,501.000000 323.333344,501.000000 234.000000,501.000000 
M205.499817,288.489502 
	C198.047943,288.489502 190.596069,288.489502 183.101425,288.489502 
	C183.101425,299.353851 182.454086,309.702545 183.227768,319.943939 
	C185.222153,346.343567 200.027145,363.884613 225.405441,371.233307 
	C238.122726,374.915802 251.090668,375.065094 264.041626,373.750549 
	C298.314880,370.271759 318.682495,348.847504 318.980469,314.459320 
	C319.513031,252.999161 319.199310,191.531662 319.219025,130.067245 
	C319.219269,129.304749 318.950531,128.542160 318.800537,127.743286 
	C302.054993,127.743286 285.620789,127.743286 268.737152,127.743286 
	C268.737152,129.791824 268.737122,131.591675 268.737152,133.391525 
	C268.738098,190.026077 268.753174,246.660660 268.706909,303.295166 
	C268.703918,306.945374 268.551331,310.654297 267.898865,314.232056 
	C266.780701,320.363464 264.270996,325.863922 257.643921,327.750397 
	C243.954544,331.647217 234.627472,325.215118 233.211456,311.060791 
	C232.947128,308.418671 233.055786,305.736450 233.043167,303.072540 
	C233.020615,298.314148 233.036804,293.555511 233.036804,288.486816 
	C223.777008,288.486816 215.138443,288.486816 205.499817,288.489502 
M265.028473,184.499985 
	C265.028473,174.609116 265.028473,164.718246 265.028473,154.827393 
	C264.788239,154.830643 264.548035,154.833908 264.307800,154.837173 
	C264.307800,184.503052 264.307800,214.168930 264.307800,243.834808 
	C264.534821,243.834747 264.761871,243.834702 264.988892,243.834641 
	C264.988892,224.389648 264.988892,204.944641 265.028473,184.499985 
z"/>
<path fill="#F8F8F8" opacity="1.000000" stroke="none" 
	d="
M205.999847,288.488159 
	C215.138443,288.486816 223.777008,288.486816 233.036804,288.486816 
	C233.036804,293.555511 233.020615,298.314148 233.043167,303.072540 
	C233.055786,305.736450 232.947128,308.418671 233.211456,311.060791 
	C234.627472,325.215118 243.954544,331.647217 257.643921,327.750397 
	C264.270996,325.863922 266.780701,320.363464 267.898865,314.232056 
	C268.551331,310.654297 268.703918,306.945374 268.706909,303.295166 
	C268.753174,246.660660 268.738098,190.026077 268.737152,133.391525 
	C268.737122,131.591675 268.737152,129.791824 268.737152,127.743286 
	C285.620789,127.743286 302.054993,127.743286 318.800537,127.743286 
	C318.950531,128.542160 319.219269,129.304749 319.219025,130.067245 
	C319.199310,191.531662 319.513031,252.999161 318.980469,314.459320 
	C318.682495,348.847504 298.314880,370.271759 264.041626,373.750549 
	C251.090668,375.065094 238.122726,374.915802 225.405441,371.233307 
	C200.027145,363.884613 185.222153,346.343567 183.227768,319.943939 
	C182.454086,309.702545 183.101425,299.353851 183.101425,288.489502 
	C190.596069,288.489502 198.047943,288.489502 205.999847,288.488159 
z"/>
<path fill="#333333" opacity="1.000000" stroke="none" 
	d="
M265.008667,184.999817 
	C264.988892,204.944641 264.988892,224.389648 264.988892,243.834641 
	C264.761871,243.834702 264.534821,243.834747 264.307800,243.834808 
	C264.307800,214.168930 264.307800,184.503052 264.307800,154.837173 
	C264.548035,154.833908 264.788239,154.830643 265.028473,154.827393 
	C265.028473,164.718246 265.028473,174.609116 265.008667,184.999817 
z"/>
</svg>